<svg xmlns="http://www.w3.org/2000/svg" xmlns:xlink="http://www.w3.org/1999/xlink" version="1.1" xml:space="preserve" width="360" height="360"><rect id="backgroundrect" width="100%" height="100%" x="0" y="0" fill="none" stroke="none"/>
















<g class="currentLayer"><title>Layer 1</title><path d="M352.163,163.115L198.919,9.871c-10.449-10.449-27.389-10.449-37.838,0L7.837,163.115c-7.652,7.652-9.94,19.16-5.8,29.158  c4.142,9.998,13.898,16.516,24.719,16.516h20.762v114.574c0,19.112,15.493,34.603,34.603,34.603h195.758  c19.11,0,34.603-15.492,34.603-34.603V208.789h20.762c10.821,0,20.578-6.519,24.719-16.516  C362.103,182.275,359.815,170.767,352.163,163.115z M220.431,307.785h-80.862v-45.583c0-22.33,18.102-40.431,40.431-40.431  s40.431,18.1,40.431,40.431V307.785z" id="svg_1" class="selected" fill="#ffffff" fill-opacity="1"/><g id="svg_2">
</g><g id="svg_3">
</g><g id="svg_4">
</g><g id="svg_5">
</g><g id="svg_6">
</g><g id="svg_7">
</g><g id="svg_8">
</g><g id="svg_9">
</g><g id="svg_10">
</g><g id="svg_11">
</g><g id="svg_12">
</g><g id="svg_13">
</g><g id="svg_14">
</g><g id="svg_15">
</g><g id="svg_16">
</g></g></svg>