<svg xmlns="http://www.w3.org/2000/svg" xmlns:xlink="http://www.w3.org/1999/xlink" enable-background="new 0 0 512 512" height="512" version="1.1" width="512" xml:space="preserve"><rect id="backgroundrect" width="100%" height="100%" x="0" y="0" fill="none" stroke="none"/><g class="currentLayer"><title>Layer 1</title><g id="Layer_2"><rect fill="#7ED746" height="512" width="512" x="538" id="svg_1"/><rect fill="#2F75B5" height="512" width="512" x="-537" id="svg_2"/></g><g id="Layer_1" class="selected" fill="#ffffff" fill-opacity="1"><path d="M254.88268148899078,36.082 c-84.553,0 -153.105,68.554 -153.105,153.106 c0,113.559 153.105,286.73 153.105,286.73 s153.106,-173.172 153.106,-286.73 C407.9886814889908,104.636 339.4346814889908,36.082 254.88268148899078,36.082 zM254.88268148899078,253.787 c-35.682,0 -64.6,-28.917 -64.6,-64.6 s28.918,-64.6 64.6,-64.6 s64.6,28.917 64.6,64.6 S290.5646814889908,253.787 254.88268148899078,253.787 z" fill="#ffffff" id="svg_3" fill-opacity="1"/><path d="M792.8826814889908,36.082 c-84.553,0 -153.105,68.554 -153.105,153.106 c0,113.559 153.105,286.73 153.105,286.73 s153.106,-173.172 153.106,-286.73 C945.9886814889908,104.636 877.4346814889908,36.082 792.8826814889908,36.082 zM792.8826814889908,253.787 c-35.682,0 -64.6,-28.917 -64.6,-64.6 s28.918,-64.6 64.6,-64.6 s64.6,28.917 64.6,64.6 S828.5646814889908,253.787 792.8826814889908,253.787 z" fill="#ffffff" id="svg_4" fill-opacity="1"/><path d="M-282.1173185110092,36.082 c-84.553,0 -153.105,68.554 -153.105,153.106 c0,113.559 153.105,286.73 153.105,286.73 s153.106,-173.172 153.106,-286.73 C-129.01131851100922,104.636 -197.56531851100922,36.082 -282.1173185110092,36.082 zM-282.1173185110092,253.787 c-35.682,0 -64.6,-28.917 -64.6,-64.6 s28.918,-64.6 64.6,-64.6 s64.6,28.917 64.6,64.6 S-246.43531851100923,253.787 -282.1173185110092,253.787 z" fill="#ffffff" id="svg_5" fill-opacity="1"/></g></g></svg>